<svg xmlns="http://www.w3.org/2000/svg" viewBox="0 0 32 32" fill="none">
  <defs>
    <linearGradient id="ember-grad" x1="50%" y1="100%" x2="50%" y2="0%">
      <stop offset="0%" stop-color="#c2410c"/>
      <stop offset="50%" stop-color="#ea580c"/>
      <stop offset="100%" stop-color="#f97316"/>
    </linearGradient>
  </defs>
  <!-- Flame with upward momentum - chevron-like silhouette -->
  <path
    d="M16 2C16 2 6 10 6 18C6 24 10 28 16 30C16 30 12 24 12 20C12 16 14 12 16 10C18 12 20 16 20 20C20 24 16 30 16 30C22 28 26 24 26 18C26 10 16 2 16 2Z"
    fill="url(#ember-grad)"
  />
  <!-- Inner glow for depth -->
  <path
    d="M16 8C16 8 11 14 11 19C11 23 13 26 16 27C16 27 14 23 14 20C14 17 15 14 16 13C17 14 18 17 18 20C18 23 16 27 16 27C19 26 21 23 21 19C21 14 16 8 16 8Z"
    fill="#fff"
    fill-opacity="0.2"
  />
</svg>
